# xmcd
#
# Track frame offsets: 
#        150
#        13162
#        25642
#        39322
#        53515
#        67060
#        85857
#        99617
#        116047
#        130890
#        151720
#        169087
#        183537
#
# Disc length: 2735 seconds
#
# Revision: 0
# Processed by: cddbd v1.5.1PL0 Copyright (c) Steve Scherf et al.
# Submitted via: ExactAudioCopy v0.95b2
#
DISCID=a00aad0d
DTITLE=Amyl Justin and Peter Malick - Sons Of The Jet Age
DYEAR=1999
DGENRE=Blues
TTITLE0=Shot Full Of Heartache
TTITLE1=Hold It
TTITLE2=If Trouble Was Money
TTITLE3=Lone Wolf
TTITLE4=Prisoner Of Love
TTITLE5=All Alone
TTITLE6=Get It While You Can
TTITLE7=Last Train
TTITLE8=You Are My Sunshine
TTITLE9=Dark Side
TTITLE10=Bulldog
TTITLE11=Good As Gone
TTITLE12=Angel
EXTD=
EXTT0=
EXTT1=
EXTT2=
EXTT3=
EXTT4=
EXTT5=
EXTT6=
EXTT7=
EXTT8=
EXTT9=
EXTT10=
EXTT11=
EXTT12=
PLAYORDER=
